<?xml version="1.0"?>
<svg width="389.65517241379314" height="78.8514600635303" xmlns="http://www.w3.org/2000/svg" xmlns:svg="http://www.w3.org/2000/svg" class="iconify iconify--logos" preserveAspectRatio="xMidYMid meet">
 <g class="layer">
  <title>Layer 1</title>
  <g id="svg_8">
   <g fill="#000" id="SvgjsG1509" transform="matrix(0.703155 0 0 0.703155 9.01919 13.3227)">
    <g id="svg_1" xmlns="http://www.w3.org/2000/svg">
     <circle cx="32.48" cy="1.99" id="svg_2" r="7.95"/>
     <path d="m2.34,2.38c0.04,0.07 0.07,0.15 0.11,0.22c0.03,0.08 0.07,0.15 0.11,0.23c0.03,0.07 0.07,0.15 0.11,0.23c0.03,0.07 0.07,0.15 0.11,0.22c0.03,0.08 0.06,0.15 0.1,0.23c0.04,0.07 0.07,0.15 0.11,0.22c0.03,0.08 0.07,0.15 0.11,0.23c0.03,0.08 0.07,0.15 0.1,0.23c0.04,0.07 0.07,0.15 0.11,0.23c0.03,0.07 0.07,0.15 0.11,0.22c0.03,0.08 0.07,0.15 0.1,0.23c0.04,0.07 0.07,0.15 0.11,0.23c0.05,0.11 0.1,0.21 0.15,0.32c0.03,0.07 0.07,0.15 0.11,0.22c0.03,0.08 0.06,0.16 0.1,0.23c0.04,0.08 0.07,0.16 0.11,0.23c0.03,0.08 0.07,0.15 0.11,0.23c0.03,0.07 0.06,0.15 0.1,0.22c0.03,0.08 0.07,0.16 0.11,0.24c0.03,0.07 0.06,0.15 0.1,0.22c0.03,0.08 0.07,0.15 0.1,0.23c0.04,0.08 0.07,0.15 0.11,0.23c0.03,0.08 0.07,0.15 0.1,0.23c0.04,0.07 0.07,0.15 0.11,0.23c0.03,0.07 0.06,0.15 0.1,0.22c0.04,0.11 0.09,0.21 0.14,0.31c0.03,0.08 0.07,0.16 0.11,0.24c0.03,0.08 0.07,0.16 0.1,0.23c0.04,0.08 0.07,0.16 0.11,0.23c0.03,0.08 0.06,0.16 0.1,0.23c0.03,0.08 0.07,0.15 0.1,0.23c0.04,0.08 0.07,0.16 0.11,0.23c0.03,0.08 0.06,0.15 0.1,0.23c0.03,0.08 0.06,0.15 0.1,0.23c0.03,0.08 0.07,0.15 0.1,0.23c0.03,0.08 0.07,0.15 0.11,0.23c0.03,0.08 0.06,0.15 0.1,0.23c0.03,0.08 0.06,0.15 0.1,0.23c0.03,0.08 0.07,0.16 0.1,0.24c0.04,0.1 0.09,0.21 0.14,0.31c0.03,0.08 0.06,0.16 0.1,0.23c0.03,0.08 0.06,0.16 0.1,0.23c0.03,0.08 0.07,0.16 0.1,0.23c0.03,0.08 0.07,0.16 0.1,0.23c0.03,0.08 0.07,0.16 0.1,0.23c0.03,0.08 0.07,0.16 0.1,0.23c0.03,0.08 0.07,0.16 0.1,0.23c0.03,0.08 0.07,0.16 0.1,0.23c0.03,0.08 0.06,0.16 0.1,0.23c0.03,0.08 0.06,0.16 0.1,0.23c0.03,0.08 0.06,0.16 0.1,0.24c0.03,0.08 0.06,0.15 0.09,0.23c0.04,0.09 0.08,0.18 0.12,0.26c0.03,0.1 0.07,0.2 0.12,0.29c0.41,1.05 1.3,1.86 2.4,2.17c0.08,0.04 0.17,0.06 0.26,0.09c0.11,0.04 0.22,0.08 0.33,0.11c0.09,0.03 0.17,0.06 0.26,0.08c0.09,0.03 0.17,0.06 0.26,0.08c0.08,0.04 0.17,0.06 0.26,0.09c0.08,0.03 0.17,0.06 0.25,0.08c0.09,0.03 0.17,0.06 0.26,0.09c0.08,0.03 0.17,0.06 0.26,0.09c0.08,0.03 0.17,0.06 0.25,0.08c0.09,0.03 0.17,0.06 0.26,0.09c0.09,0.04 0.19,0.07 0.29,0.1c0.1,0.04 0.21,0.08 0.33,0.11c0.08,0.03 0.17,0.06 0.25,0.09c0.09,0.03 0.17,0.06 0.26,0.09c0.09,0.03 0.17,0.06 0.26,0.08c0.08,0.04 0.16,0.07 0.25,0.09c0.09,0.04 0.17,0.07 0.26,0.09c0.08,0.04 0.17,0.07 0.25,0.09c0.09,0.04 0.17,0.07 0.26,0.09c0.08,0.04 0.17,0.07 0.25,0.09c0.08,0.04 0.17,0.07 0.26,0.09c0.08,0.04 0.18,0.07 0.27,0.1c0.12,0.05 0.24,0.1 0.36,0.13c0.09,0.04 0.17,0.07 0.26,0.1c0.08,0.03 0.16,0.06 0.25,0.09c0.08,0.03 0.17,0.06 0.25,0.09c0.09,0.03 0.17,0.06 0.26,0.09c0.08,0.04 0.17,0.07 0.25,0.1c0.09,0.03 0.17,0.06 0.25,0.09c0.09,0.03 0.17,0.06 0.26,0.09c0.08,0.04 0.17,0.07 0.25,0.1c0.08,0.03 0.17,0.06 0.25,0.09c0.09,0.03 0.17,0.06 0.26,0.09c0.08,0.04 0.16,0.07 0.25,0.1c0.11,0.05 0.22,0.09 0.34,0.13c0.1,0.04 0.21,0.08 0.32,0.12c0.08,0.03 0.17,0.06 0.25,0.09c0.08,0.03 0.17,0.07 0.25,0.1c0.09,0.03 0.17,0.06 0.26,0.09c0.08,0.04 0.16,0.07 0.25,0.1c0.08,0.03 0.17,0.06 0.25,0.09c0.09,0.04 0.17,0.07 0.26,0.1c0.08,0.04 0.16,0.07 0.25,0.1c0.02,0.01 0.05,0.02 0.07,0.03c0,0.01 0,0.03 0,0.04c0,0.06 0.01,0.13 0.01,0.19c0,0.07 -0.01,0.13 -0.01,0.2c0,0.06 0.01,0.13 0.01,0.19c0,0.07 -0.01,0.13 -0.01,0.2c0,0.06 0.01,0.13 0.01,0.19c0,0.07 -0.01,0.13 -0.01,0.2c0,0.06 0.01,0.13 0.01,0.19c0,0.07 -0.01,0.13 -0.01,0.2c0,0.06 0.01,0.13 0.01,0.19c0,0.07 -0.01,0.13 -0.01,0.2c0,0.06 0.01,0.13 0.01,0.19c0,0.07 -0.01,0.13 -0.01,0.2c0,0.06 0.01,0.13 0.01,0.19c0,0.07 -0.01,0.13 -0.01,0.2c0,0.06 0.01,0.13 0.01,0.19c0,0.07 -0.01,0.13 -0.01,0.2c0,0.06 0.01,0.13 0.01,0.19c0,0.07 -0.01,0.13 -0.01,0.2c0,0.06 0.01,0.13 0.01,0.19c0,0.07 -0.01,0.13 -0.01,0.2c0,0.06 0.01,0.13 0.01,0.19c0,0.07 -0.01,0.13 -0.01,0.2c0,0.06 0.01,0.13 0.01,0.19c0,0.07 -0.01,0.13 -0.01,0.2c0,0.06 0.01,0.13 0.01,0.19c0,0.07 -0.01,0.13 -0.01,0.2c0,0.06 0.01,0.13 0.01,0.19c0,0.07 -0.01,0.13 -0.01,0.2c0,0.06 0.01,0.13 0.01,0.19c0,0.07 -0.01,0.13 -0.01,0.2c0,0.06 0.01,0.13 0.01,0.19c0,0.07 -0.01,0.13 -0.01,0.2c0,0.06 0.01,0.13 0.01,0.19c0,0.07 -0.01,0.13 -0.01,0.2c0,0.06 0.01,0.13 0.01,0.19c0,0.07 -0.01,0.13 -0.01,0.2c0,0.06 0.01,0.13 0.01,0.19c0,0.07 -0.01,0.13 -0.01,0.2c0,0.06 0.01,0.13 0.01,0.19c0,0.07 -0.01,0.13 -0.01,0.2c0,0.06 0.01,0.13 0.01,0.19c0,0.07 -0.01,0.13 -0.01,0.2c0,0.06 0.01,0.13 0.01,0.19c0,0.07 -0.01,0.13 -0.01,0.2c0,0.06 0.01,0.13 0.01,0.19c0,0.07 -0.01,0.13 -0.01,0.2c0,0.06 0.01,0.13 0.01,0.19c0,0.07 -0.01,0.13 -0.01,0.2c0,0.06 0.01,0.13 0.01,0.19c0,0.07 -0.01,0.13 -0.01,0.2c0,0.06 0.01,0.13 0.01,0.19c0,0.07 -0.01,0.13 -0.01,0.2c0,0.06 0.01,0.13 0.01,0.19c0,0.01 0,0.02 0,0.03c2.83,0.44 5.94,1.04 9.52,1.85l0.07,0.02c3.74,0.93 7.43,1.64 11.07,2.11c-0.01,-0.04 -0.01,-0.08 -0.01,-0.12c0,-0.1 0.01,-0.19 0.01,-0.29c0,-0.09 -0.01,-0.19 -0.01,-0.28c0,-0.09 0.01,-0.19 0.01,-0.28c0,-0.1 -0.01,-0.19 -0.01,-0.29c0,-0.09 0.01,-0.19 0.01,-0.28c0,-0.1 -0.01,-0.19 -0.01,-0.28c0,-0.1 0.01,-0.19 0.01,-0.29c0,-0.09 -0.01,-0.19 -0.01,-0.28c0,-0.09 0.01,-0.19 0.01,-0.28c0,-0.1 -0.01,-0.19 -0.01,-0.29c0,-0.09 0.01,-0.19 0.01,-0.28c0,-0.1 -0.01,-0.19 -0.01,-0.28c0,-0.1 0.01,-0.19 0.01,-0.29c0,-0.09 -0.01,-0.19 -0.01,-0.28c0,-0.1 0.01,-0.19 0.01,-0.28c0,-0.1 -0.01,-0.19 -0.01,-0.29c0,-0.09 0.01,-0.19 0.01,-0.28c0,-0.1 -0.01,-0.19 -0.01,-0.28c0,-0.1 0.01,-0.19 0.01,-0.29c0,-0.09 -0.01,-0.19 -0.01,-0.28c0,-0.09 0.01,-0.19 0.01,-0.28c0,-0.1 -0.01,-0.19 -0.01,-0.29c0,-0.09 0.01,-0.19 0.01,-0.28c0,-0.1 -0.01,-0.19 -0.01,-0.28c0,-0.07 0.01,-0.13 0.01,-0.2c0.03,0.02 0.07,0.04 0.1,0.07c0.08,0.05 0.16,0.1 0.24,0.15c0.07,0.06 0.15,0.11 0.23,0.16c0.08,0.05 0.15,0.11 0.23,0.16c0.08,0.05 0.16,0.11 0.24,0.15c0.06,0.05 0.12,0.09 0.19,0.14c0.07,0.05 0.15,0.1 0.23,0.15c0.07,0.06 0.15,0.11 0.23,0.16c0.08,0.06 0.15,0.11 0.23,0.16c0.08,0.05 0.15,0.11 0.23,0.16c0.07,0.05 0.15,0.11 0.23,0.16c0.06,0.05 0.13,0.1 0.2,0.14c0.07,0.06 0.15,0.11 0.22,0.16c0.08,0.06 0.16,0.11 0.23,0.16c0.08,0.06 0.15,0.11 0.23,0.16c0.07,0.06 0.14,0.11 0.22,0.16c0.07,0.06 0.15,0.12 0.23,0.17c0.06,0.05 0.13,0.1 0.2,0.14c0,0 0,0.01 0,0.01c0,0.01 0,0.02 0,0.03c0.01,0.09 0.02,0.19 0.04,0.28c0.01,0.1 0.02,0.19 0.04,0.29c0.01,0.09 0.02,0.19 0.04,0.28c0.01,0.1 0.02,0.19 0.03,0.29c0.01,0.08 0.02,0.16 0.03,0.24c0.01,0.09 0.03,0.19 0.04,0.28c0.01,0.1 0.02,0.19 0.04,0.29c0.01,0.09 0.02,0.19 0.04,0.28c0.01,0.1 0.02,0.19 0.04,0.29c0,0.09 0.02,0.19 0.03,0.28c0.01,0.1 0.02,0.19 0.04,0.29c0.01,0.09 0.02,0.19 0.03,0.28c0.01,0.1 0.02,0.19 0.04,0.29c0.01,0.09 0.02,0.19 0.04,0.28c0,0.1 0.01,0.19 0.03,0.29c0.01,0.09 0.02,0.19 0.04,0.28c0,0.1 0.01,0.19 0.03,0.29c0,0.01 0,0.02 0,0.03c2.05,0.16 4.08,0.24 6.08,0.24c0.39,0 0.78,0 1.17,-0.01c0,-0.09 -0.02,-0.18 -0.03,-0.27c-0.01,-0.09 -0.02,-0.18 -0.03,-0.28c-0.01,-0.09 -0.02,-0.18 -0.03,-0.27c-0.01,-0.09 -0.02,-0.18 -0.03,-0.28c-0.01,-0.12 -0.03,-0.24 -0.05,-0.36c0,-0.09 -0.01,-0.18 -0.03,-0.27c-0.01,-0.1 -0.02,-0.19 -0.03,-0.28c-0.01,-0.09 -0.02,-0.18 -0.03,-0.28c-0.01,-0.09 -0.02,-0.18 -0.03,-0.27c-0.01,-0.09 -0.02,-0.19 -0.04,-0.28c0,-0.09 -0.01,-0.18 -0.03,-0.28c0,-0.09 -0.01,-0.18 -0.03,-0.27c0,-0.09 -0.01,-0.19 -0.03,-0.28c-0.01,-0.09 -0.02,-0.18 -0.03,-0.27c-0.01,-0.1 -0.02,-0.19 -0.03,-0.28c-0.01,-0.09 -0.02,-0.18 -0.03,-0.28c-0.01,-0.09 -0.02,-0.18 -0.03,-0.27c0,-0.1 -0.02,-0.19 -0.03,-0.28c0,-0.09 -0.02,-0.18 -0.03,-0.28c-0.01,-0.12 -0.02,-0.24 -0.04,-0.35c0,-0.1 -0.01,-0.19 -0.03,-0.28c0,-0.1 -0.01,-0.19 -0.03,-0.28c0,-0.09 -0.01,-0.18 -0.03,-0.28c0,-0.09 -0.01,-0.18 -0.02,-0.28c-0.01,-0.09 -0.02,-0.18 -0.03,-0.27c-0.01,-0.1 -0.02,-0.19 -0.03,-0.29c-0.07,-1.07 -0.61,-2.02 -1.41,-2.64c-0.07,-0.06 -0.13,-0.12 -0.2,-0.17c-0.07,-0.06 -0.13,-0.11 -0.2,-0.17c-0.06,-0.06 -0.13,-0.11 -0.2,-0.17c-0.06,-0.05 -0.13,-0.11 -0.19,-0.16c-0.09,-0.09 -0.18,-0.17 -0.28,-0.24c-0.07,-0.06 -0.13,-0.12 -0.2,-0.17c-0.06,-0.06 -0.13,-0.12 -0.19,-0.17c-0.07,-0.06 -0.13,-0.12 -0.2,-0.17c-0.06,-0.06 -0.13,-0.12 -0.19,-0.18c-0.07,-0.05 -0.13,-0.11 -0.19,-0.16c-0.07,-0.07 -0.13,-0.12 -0.2,-0.18c-0.06,-0.06 -0.13,-0.12 -0.19,-0.17c-0.08,-0.08 -0.16,-0.15 -0.25,-0.22c-0.07,-0.07 -0.15,-0.14 -0.23,-0.21c-0.06,-0.06 -0.12,-0.11 -0.19,-0.17c-0.06,-0.06 -0.12,-0.12 -0.19,-0.18c-0.06,-0.06 -0.12,-0.11 -0.19,-0.17c-0.06,-0.06 -0.12,-0.12 -0.19,-0.18c-0.06,-0.06 -0.12,-0.12 -0.19,-0.17c-0.06,-0.06 -0.12,-0.12 -0.19,-0.18c-0.06,-0.06 -0.12,-0.12 -0.18,-0.17c-0.09,-0.09 -0.18,-0.17 -0.27,-0.25c-0.07,-0.07 -0.14,-0.14 -0.21,-0.2c-0.06,-0.06 -0.12,-0.12 -0.19,-0.18c-0.06,-0.06 -0.12,-0.12 -0.19,-0.18c-0.06,-0.06 -0.12,-0.12 -0.18,-0.18c-0.06,-0.06 -0.13,-0.12 -0.19,-0.18c-0.06,-0.06 -0.12,-0.12 -0.19,-0.18c-0.06,-0.06 -0.12,-0.12 -0.18,-0.17c-0.06,-0.07 -0.12,-0.13 -0.19,-0.19c-0.06,-0.06 -0.12,-0.12 -0.18,-0.17c-0.09,-0.11 -0.19,-0.2 -0.3,-0.3c-0.06,-0.06 -0.12,-0.12 -0.18,-0.18c-0.06,-0.06 -0.12,-0.12 -0.19,-0.18c-0.06,-0.06 -0.12,-0.12 -0.18,-0.18c-0.06,-0.06 -0.12,-0.12 -0.19,-0.18c-0.06,-0.07 -0.12,-0.13 -0.18,-0.19c-0.06,-0.06 -0.12,-0.12 -0.18,-0.18c-0.06,-0.06 -0.12,-0.12 -0.18,-0.18c-0.06,-0.07 -0.12,-0.13 -0.19,-0.19c-0.05,-0.06 -0.12,-0.12 -0.18,-0.18c-0.05,-0.06 -0.12,-0.12 -0.18,-0.18c-0.09,-0.11 -0.19,-0.21 -0.29,-0.3c-0.07,-0.07 -0.13,-0.14 -0.2,-0.2c-0.06,-0.07 -0.12,-0.13 -0.18,-0.19c-0.06,-0.06 -0.12,-0.12 -0.18,-0.18c-0.06,-0.07 -0.12,-0.13 -0.19,-0.19c-0.05,-0.06 -0.11,-0.13 -0.18,-0.19c-0.05,-0.06 -0.11,-0.12 -0.17,-0.18c-0.06,-0.07 -0.12,-0.13 -0.19,-0.19c-0.05,-0.06 -0.11,-0.12 -0.17,-0.18c-0.06,-0.07 -0.12,-0.13 -0.18,-0.19c-0.06,-0.06 -0.12,-0.13 -0.18,-0.19c-0.06,-0.06 -0.12,-0.12 -0.18,-0.18c-0.09,-0.1 -0.18,-0.19 -0.27,-0.29c-0.79,-0.86 -1.88,-1.45 -3.1,-1.6c-0.07,-0.02 -0.14,-0.03 -0.21,-0.03c-0.05,-0.01 -0.11,-0.02 -0.17,-0.03c-0.06,-0.01 -0.12,-0.02 -0.18,-0.02c-0.05,-0.01 -0.11,-0.02 -0.17,-0.03c-0.06,-0.01 -0.12,-0.02 -0.18,-0.02c-0.05,-0.01 -0.11,-0.02 -0.17,-0.03c-0.06,-0.01 -0.12,-0.02 -0.18,-0.02c-0.05,-0.01 -0.11,-0.02 -0.17,-0.03c-0.06,-0.01 -0.12,-0.02 -0.18,-0.02c-0.06,-0.01 -0.11,-0.02 -0.17,-0.03c-0.06,-0.01 -0.12,-0.02 -0.18,-0.02c-0.05,-0.01 -0.11,-0.02 -0.17,-0.03c-0.06,-0.01 -0.12,-0.01 -0.18,-0.02c-0.06,-0.02 -0.13,-0.02 -0.19,-0.03c-0.13,-0.03 -0.27,-0.05 -0.4,-0.06c-0.08,-0.01 -0.16,-0.03 -0.24,-0.04c-0.06,0 -0.12,-0.02 -0.18,-0.02c-0.06,-0.01 -0.11,-0.02 -0.17,-0.03c-0.06,-0.01 -0.12,-0.02 -0.18,-0.02c-0.06,-0.01 -0.11,-0.02 -0.17,-0.03c-0.06,-0.01 -0.12,-0.02 -0.18,-0.03c-0.06,-0.01 -0.11,-0.02 -0.17,-0.02c-0.06,-0.01 -0.12,-0.02 -0.18,-0.03c-0.06,-0.01 -0.11,-0.02 -0.17,-0.02c-0.06,-0.01 -0.12,-0.02 -0.18,-0.03c-0.05,-0.01 -0.11,-0.02 -0.17,-0.03c-0.06,-0.01 -0.12,-0.02 -0.18,-0.02c-0.05,-0.01 -0.11,-0.02 -0.17,-0.03c-0.06,-0.01 -0.12,-0.02 -0.18,-0.03c-0.05,-0.01 -0.11,-0.02 -0.17,-0.02c-0.06,-0.01 -0.12,-0.02 -0.18,-0.03c-0.06,-0.01 -0.11,-0.02 -0.17,-0.03c-0.06,-0.01 -0.12,-0.01 -0.17,-0.02c-0.06,-0.01 -0.12,-0.02 -0.18,-0.03c-0.06,-0.01 -0.12,-0.02 -0.18,-0.03c-0.05,-0.01 -0.11,-0.01 -0.17,-0.02c-0.06,-0.01 -0.12,-0.02 -0.18,-0.03c-0.05,-0.01 -0.11,-0.02 -0.17,-0.03c-0.06,-0.01 -0.12,-0.02 -0.18,-0.02c-0.05,-0.02 -0.11,-0.02 -0.17,-0.03c-0.06,-0.01 -0.12,-0.02 -0.18,-0.03c-0.05,-0.01 -0.11,-0.02 -0.17,-0.03c-0.06,-0.01 -0.12,-0.01 -0.18,-0.02c-0.08,-0.02 -0.17,-0.03 -0.25,-0.04c-0.12,-0.02 -0.23,-0.04 -0.34,-0.06c-0.08,-0.01 -0.17,-0.03 -0.25,-0.04c-0.06,0 -0.11,-0.02 -0.17,-0.02c-0.06,-0.01 -0.11,-0.02 -0.17,-0.03c-0.06,-0.01 -0.12,-0.02 -0.18,-0.03c-0.06,-0.01 -0.12,-0.02 -0.18,-0.03c-0.05,-0.01 -0.11,-0.02 -0.17,-0.03c-0.06,0 -0.11,-0.02 -0.17,-0.02c-0.06,-0.01 -0.12,-0.02 -0.18,-0.03c-0.06,-0.01 -0.11,-0.02 -0.17,-0.03c-0.07,-0.01 -0.14,-0.02 -0.2,-0.03c-0.1,-0.02 -0.19,-0.03 -0.29,-0.04c-0.08,-0.02 -0.15,-0.03 -0.23,-0.04c-0.1,-0.01 -0.2,-0.03 -0.3,-0.04c-0.09,-0.02 -0.19,-0.03 -0.29,-0.04c-0.1,-0.02 -0.19,-0.03 -0.29,-0.04c-0.1,-0.02 -0.2,-0.04 -0.3,-0.05c-0.09,-0.01 -0.19,-0.03 -0.29,-0.04c-0.09,-0.02 -0.19,-0.04 -0.29,-0.05c-0.04,0 -0.08,-0.01 -0.12,-0.01c0,-0.01 -0.01,-0.01 -0.02,-0.01c-0.05,0 -0.1,-0.01 -0.15,-0.02c-0.04,-0.01 -0.08,-0.01 -0.12,-0.02c-0.1,-0.02 -0.19,-0.03 -0.29,-0.04c-0.1,-0.02 -0.2,-0.03 -0.3,-0.05c-0.09,-0.01 -0.19,-0.03 -0.29,-0.04c-0.1,-0.02 -0.19,-0.03 -0.29,-0.05c-0.1,-0.01 -0.2,-0.03 -0.3,-0.04c-0.09,-0.02 -0.19,-0.03 -0.28,-0.05c-0.1,-0.01 -0.2,-0.03 -0.3,-0.04c-0.09,-0.02 -0.19,-0.04 -0.29,-0.05c-0.09,-0.02 -0.19,-0.03 -0.29,-0.04c-0.09,-0.02 -0.19,-0.08 -0.29,-0.09c-0.06,0 -0.11,-0.05 -0.17,-0.05c0,0 0,0 0,0c-0.04,0 -0.08,0.02 -0.12,0.02c-0.06,-0.01 -0.11,0 -0.17,-0.01c-0.09,-0.02 -0.19,-0.02 -0.29,-0.04c-0.1,-0.02 -0.19,-0.03 -0.29,-0.04c-0.1,-0.02 -0.19,-0.03 -0.29,-0.05c-0.1,-0.02 -0.19,-0.03 -0.29,-0.04c-0.1,-0.02 -0.19,-0.04 -0.29,-0.05c-0.09,-0.02 -0.19,-0.04 -0.29,-0.05c-0.09,-0.02 -0.19,-0.04 -0.29,-0.05c-0.09,-0.02 -0.18,-0.03 -0.28,-0.05c-0.1,-0.02 -0.19,-0.04 -0.29,-0.05c-0.07,-0.01 -0.13,-0.02 -0.2,-0.03c-0.09,-0.02 -0.19,-0.04 -0.28,-0.05c-0.1,-0.02 -0.2,-0.04 -0.29,-0.05c-0.1,-0.02 -0.19,-0.04 -0.29,-0.05c-0.09,-0.02 -0.19,-0.04 -0.28,-0.05c-0.1,-0.02 -0.19,-0.04 -0.29,-0.05c-0.1,-0.02 -0.19,-0.04 -0.29,-0.06c-0.09,-0.02 -0.19,-0.04 -0.28,-0.05c-0.1,-0.02 -0.19,-0.04 -0.29,-0.05c-0.07,-0.02 -0.14,-0.03 -0.22,-0.04c-0.09,-0.02 -0.19,-0.04 -0.28,-0.06c-0.1,-0.02 -0.19,-0.03 -0.29,-0.05c-0.09,-0.02 -0.18,-0.04 -0.28,-0.05c-0.09,-0.02 -0.19,-0.04 -0.28,-0.05c-0.09,-0.03 -0.19,-0.05 -0.28,-0.06c-0.1,-0.02 -0.19,-0.04 -0.28,-0.05c-0.1,-0.03 -0.19,-0.05 -0.29,-0.06c-0.08,-0.02 -0.16,-0.04 -0.24,-0.05c-0.09,-0.02 -0.18,-0.04 -0.28,-0.05c-0.01,-0.01 -0.03,-0.01 -0.04,-0.01c-0.01,-0.04 -0.03,-0.07 -0.05,-0.1c-0.03,-0.09 -0.07,-0.16 -0.11,-0.24c-0.03,-0.08 -0.07,-0.16 -0.11,-0.24c-0.04,-0.08 -0.08,-0.16 -0.12,-0.24c-0.03,-0.08 -0.07,-0.16 -0.11,-0.24c-0.03,-0.08 -0.07,-0.16 -0.11,-0.24c-0.04,-0.08 -0.07,-0.16 -0.11,-0.24c-0.04,-0.08 -0.07,-0.16 -0.11,-0.24c-0.04,-0.08 -0.07,-0.16 -0.11,-0.23c-0.04,-0.09 -0.07,-0.17 -0.12,-0.24c-0.03,-0.09 -0.07,-0.17 -0.11,-0.24c-0.02,-0.07 -0.05,-0.13 -0.08,-0.19c-0.04,-0.08 -0.08,-0.16 -0.11,-0.24c-0.04,-0.08 -0.08,-0.16 -0.12,-0.24c-0.03,-0.08 -0.07,-0.16 -0.11,-0.24c-0.03,-0.08 -0.07,-0.16 -0.11,-0.24c-0.03,-0.08 -0.07,-0.16 -0.11,-0.24c-0.03,-0.08 -0.07,-0.16 -0.1,-0.24c-0.04,-0.08 -0.07,-0.16 -0.11,-0.24c-0.04,-0.08 -0.07,-0.16 -0.11,-0.24c-0.04,-0.08 -0.07,-0.16 -0.11,-0.24c-0.03,-0.06 -0.06,-0.13 -0.09,-0.19c0,-0.01 0,-0.02 -0.01,-0.03c0,-0.01 -0.01,-0.01 -0.01,-0.02c-0.03,-0.06 -0.05,-0.13 -0.08,-0.19c-0.04,-0.08 -0.08,-0.16 -0.11,-0.24c-0.04,-0.08 -0.07,-0.16 -0.11,-0.24c-0.04,-0.08 -0.07,-0.16 -0.11,-0.24c-0.04,-0.08 -0.07,-0.16 -0.11,-0.24c-0.03,-0.08 -0.07,-0.16 -0.11,-0.24c-0.03,-0.08 -0.07,-0.16 -0.1,-0.24c-0.04,-0.08 -0.07,-0.17 -0.11,-0.24c-0.03,-0.09 -0.07,-0.17 -0.11,-0.25c-0.03,-0.08 -0.07,-0.16 -0.1,-0.24c-0.03,-0.06 -0.06,-0.12 -0.08,-0.18c-0.04,-0.09 -0.07,-0.17 -0.11,-0.25c-0.03,-0.08 -0.07,-0.16 -0.11,-0.24c-0.03,-0.08 -0.07,-0.16 -0.11,-0.24c-0.03,-0.08 -0.06,-0.16 -0.1,-0.24c-0.03,-0.08 -0.07,-0.17 -0.11,-0.25c-0.03,-0.08 -0.07,-0.16 -0.1,-0.24c-0.04,-0.08 -0.07,-0.16 -0.11,-0.24c-0.03,-0.08 -0.07,-0.16 -0.1,-0.24c-0.04,-0.09 -0.07,-0.17 -0.11,-0.25c-0.03,-0.08 -0.06,-0.16 -0.1,-0.24c-0.03,-0.06 -0.05,-0.12 -0.08,-0.18c-0.03,-0.08 -0.07,-0.17 -0.11,-0.25c-0.03,-0.08 -0.06,-0.16 -0.1,-0.24c-0.03,-0.08 -0.07,-0.16 -0.1,-0.24c-0.04,-0.09 -0.07,-0.17 -0.11,-0.25c-0.03,-0.08 -0.06,-0.16 -0.1,-0.24c-0.53,-1.38 -1.86,-2.36 -3.42,-2.36c-2.02,0 -3.65,1.64 -3.65,3.66c0,0.63 0.16,1.23 0.44,1.75c0.04,0.08 0.07,0.15 0.11,0.23z" id="svg_3"/>
     <path d="m32.15,53.35c-0.75,-0.14 -1.49,-0.29 -2.21,-0.45l-0.07,0.02c-2.65,-0.67 -5.28,-1.21 -7.88,-1.64c0,0.07 -0.01,0.13 -0.01,0.19c0,0.07 0.01,0.13 0.01,0.2c0,0.06 -0.01,0.13 -0.01,0.19c0,0.07 0.01,0.13 0.01,0.2c0,0.06 -0.01,0.13 -0.01,0.19c0,0.07 0.01,0.13 0.01,0.2c0,0.06 -0.01,0.13 -0.01,0.19c0,0.07 0.01,0.13 0.01,0.2c0,0.06 -0.01,0.13 -0.01,0.19c0,0.07 0.01,0.13 0.01,0.2c0,0.06 -0.01,0.13 -0.01,0.19c0,0.07 0.01,0.13 0.01,0.2c0,0.06 -0.01,0.13 -0.01,0.19c0,0.07 0.01,0.13 0.01,0.2c0,0.06 -0.01,0.13 -0.01,0.19c0,0.07 0.01,0.13 0.01,0.2c0,0.06 -0.01,0.13 -0.01,0.19c0,0.07 0.01,0.13 0.01,0.2c0,0.06 -0.01,0.13 -0.01,0.19c0,0.07 0.01,0.13 0.01,0.2c0,0.06 -0.01,0.13 -0.01,0.19c0,0.07 0.01,0.13 0.01,0.2c0,0.06 -0.01,0.13 -0.01,0.19c0,0.07 0.01,0.13 0.01,0.2c0,0.06 -0.01,0.13 -0.01,0.19c0,0.07 0.01,0.13 0.01,0.2c0,0.06 -0.01,0.13 -0.01,0.19c0,0.07 0.01,0.13 0.01,0.2c0,0.06 -0.01,0.13 -0.01,0.19c0,0.07 0.01,0.13 0.01,0.2c0,0.06 -0.01,0.13 -0.01,0.19c0,2.81 2.28,5.09 5.09,5.09c2.81,0 5.09,-2.28 5.09,-5.09c0,-0.06 -0.01,-0.13 -0.01,-0.2c0,-0.06 0.01,-0.12 0.01,-0.19c0,-0.06 -0.01,-0.13 -0.01,-0.19c0,-0.07 0.01,-0.13 0.01,-0.2c0,-0.06 -0.01,-0.13 -0.01,-0.19c0,-0.07 0.01,-0.13 0.01,-0.2c0,-0.06 -0.01,-0.13 -0.01,-0.19c0,-0.07 0.01,-0.13 0.01,-0.2c0,-0.06 -0.01,-0.13 -0.01,-0.19c0,-0.07 0.01,-0.13 0.01,-0.2c0,-0.06 -0.01,-0.13 -0.01,-0.19c0,-0.07 0.01,-0.13 0.01,-0.2c0,-0.06 -0.01,-0.13 -0.01,-0.19c0,-0.07 0.01,-0.13 0.01,-0.2c0,-0.06 -0.01,-0.13 -0.01,-0.19c0,-0.07 0.01,-0.13 0.01,-0.2c0,-0.06 -0.01,-0.13 -0.01,-0.19c0,-0.07 0.01,-0.13 0.01,-0.2c0,-0.06 -0.01,-0.13 -0.01,-0.19c0,-0.07 0.01,-0.13 0.01,-0.2c0,-0.02 0,-0.04 -0.01,-0.07z" id="svg_4"/>
     <path d="m42.65,54.57c-3.62,-0.21 -7.05,-0.6 -10.17,-1.16c0,0.03 0,0.05 0,0.08c0,0.1 0.01,0.19 0.01,0.28c0,0.1 -0.01,0.19 -0.01,0.29c0,0.09 0.01,0.19 0.01,0.28c0,0.09 -0.01,0.19 -0.01,0.28c0,0.1 0.01,0.19 0.01,0.29c0,0.09 -0.01,0.19 -0.01,0.28c0,0.1 0.01,0.19 0.01,0.28c0,0.1 -0.01,0.19 -0.01,0.29c0,0.09 0.01,0.19 0.01,0.28c0,0.1 -0.01,0.19 -0.01,0.29c0,0.09 0.01,0.18 0.01,0.28c0,0.09 -0.01,0.19 -0.01,0.28c0,0.1 0.01,0.19 0.01,0.29c0,0.09 -0.01,0.18 -0.01,0.28c0,0.1 0.01,0.19 0.01,0.28c0,0.1 -0.01,0.19 -0.01,0.29c0,0.09 0.01,0.19 0.01,0.28c0,0.09 -0.01,0.19 -0.01,0.28c0,0.1 0.01,0.19 0.01,0.29c0,0.09 -0.01,0.18 -0.01,0.28c0,0.1 0.01,0.19 0.01,0.28c0,0.1 -0.01,0.19 -0.01,0.29c0,0.09 0.01,0.19 0.01,0.28c0,0.09 -0.01,0.19 -0.01,0.28c0,0.1 0.01,0.19 0.01,0.29c0,0.09 -0.01,0.18 -0.01,0.28c0,0.09 0.01,0.19 0.01,0.28c0,0.1 -0.01,0.19 -0.01,0.29c0,0.09 0.01,0.18 0.01,0.28c0,0.09 -0.01,0.19 -0.01,0.28c0,0.1 0.01,0.19 0.01,0.29c0,0.09 -0.01,0.18 -0.01,0.28c0,0.1 0.01,0.19 0.01,0.28c0,0.1 -0.01,0.19 -0.01,0.29s0.01,0.19 0.01,0.28c0,0.09 -0.01,0.19 -0.01,0.28s0.01,0.19 0.01,0.29c0,0.09 -0.01,0.18 -0.01,0.28c0,0.1 0.01,0.19 0.01,0.28c0,0.1 -0.01,0.19 -0.01,0.29c0,0.09 0.01,0.19 0.01,0.28c0,0.09 -0.01,0.19 -0.01,0.28c0,0.1 0.01,0.19 0.01,0.29c0,0.09 -0.01,0.19 -0.01,0.28c0,0.1 0.01,0.19 0.01,0.28c0,0.1 -0.01,0.19 -0.01,0.29c0,0.09 0.01,0.19 0.01,0.28c0,0.1 -0.01,0.19 -0.01,0.29c0,0.09 0.01,0.18 0.01,0.28c0,0.09 -0.01,0.19 -0.01,0.28c0,0.1 0.01,0.19 0.01,0.29c0,0.09 -0.01,0.18 -0.01,0.28c0,0.1 0.01,0.19 0.01,0.28c0,0.1 -0.01,0.19 -0.01,0.29c0,0.09 0.01,0.19 0.01,0.28c0,0.09 -0.01,0.19 -0.01,0.28c0,0.1 0.01,0.19 0.01,0.29c0,0.09 -0.01,0.18 -0.01,0.28c0,0.1 0.01,0.19 0.01,0.28c0,0.1 -0.01,0.19 -0.01,0.29c0,0.09 0.01,0.19 0.01,0.28c0,0.09 -0.01,0.19 -0.01,0.28c0,0.1 0.01,0.19 0.01,0.29c0,0.09 -0.01,0.18 -0.01,0.28s0.01,0.19 0.01,0.28c0,0.1 -0.01,0.19 -0.01,0.29c0,0.09 0.01,0.18 0.01,0.28c0,0.09 -0.01,0.19 -0.01,0.28c0,0.1 0.01,0.19 0.01,0.29c0,0.09 -0.01,0.18 -0.01,0.28c0,0.1 0.01,0.19 0.01,0.28c0,0.1 -0.01,0.19 -0.01,0.29c0,0.09 0.01,0.18 0.01,0.28c0,0.09 -0.01,0.19 -0.01,0.28c0,0.1 0.01,0.19 0.01,0.29c0,0.09 -0.01,0.18 -0.01,0.28c0,0.09 0.01,0.19 0.01,0.28c0,0.1 -0.01,0.19 -0.01,0.29c0,0.09 0.01,0.18 0.01,0.28c0,0.09 -0.01,0.19 -0.01,0.28c0,0.1 0.01,0.19 0.01,0.29c0,0.09 -0.01,0.18 -0.01,0.28c0,2.81 2.27,5.09 5.09,5.09c2.81,0 5.08,-2.28 5.08,-5.09c0,-0.1 -0.01,-0.19 -0.01,-0.29c0,-0.09 0.01,-0.18 0.01,-0.28c0,-0.1 -0.01,-0.19 -0.01,-0.28c0,-0.1 0.01,-0.19 0.01,-0.29c0,-0.09 -0.01,-0.19 -0.01,-0.28c0,-0.09 0.01,-0.19 0.01,-0.28c0,-0.1 -0.01,-0.19 -0.01,-0.29c0,-0.09 0.01,-0.19 0.01,-0.28s-0.01,-0.19 -0.01,-0.28c0,-0.1 0.01,-0.19 0.01,-0.29c0,-0.09 -0.01,-0.19 -0.01,-0.28c0,-0.1 0.01,-0.19 0.01,-0.28c0,-0.1 -0.01,-0.19 -0.01,-0.29c0,-0.09 0.01,-0.19 0.01,-0.28c0,-0.1 -0.01,-0.19 -0.01,-0.28c0,-0.1 0.01,-0.19 0.01,-0.29c0,-0.09 -0.01,-0.19 -0.01,-0.28c0,-0.09 0.01,-0.19 0.01,-0.28s-0.01,-0.19 -0.01,-0.29c0,-0.09 0.01,-0.19 0.01,-0.28c0,-0.1 -0.01,-0.19 -0.01,-0.28c0,-0.1 0.01,-0.19 0.01,-0.29c0,-0.09 -0.01,-0.19 -0.01,-0.28c0,-0.09 0.01,-0.19 0.01,-0.28c0,-0.1 -0.01,-0.19 -0.01,-0.29c0,-0.09 0.01,-0.18 0.01,-0.28c0,-0.1 -0.01,-0.19 -0.01,-0.28c0,-0.1 0.01,-0.19 0.01,-0.29c0,-0.09 -0.01,-0.19 -0.01,-0.28c0,-0.09 0.01,-0.19 0.01,-0.28c0,-0.1 -0.01,-0.19 -0.01,-0.29c0,-0.09 0.01,-0.18 0.01,-0.28c0,-0.1 -0.01,-0.19 -0.01,-0.28c0,-0.1 0.01,-0.19 0.01,-0.29c0,-0.09 -0.01,-0.19 -0.01,-0.28c0,-0.09 0.01,-0.19 0.01,-0.28c0,-0.1 -0.01,-0.19 -0.01,-0.29c0,-0.09 0.01,-0.19 0.01,-0.28c0,-0.1 -0.01,-0.19 -0.01,-0.28c0,-0.1 0.01,-0.19 0.01,-0.29c0,-0.09 -0.01,-0.19 -0.01,-0.28c0,-0.1 0.01,-0.19 0.01,-0.29c0,-0.09 -0.01,-0.18 -0.01,-0.28c0,-0.09 0.01,-0.19 0.01,-0.28c0,-0.1 -0.01,-0.19 -0.01,-0.29c0,-0.09 0.01,-0.18 0.01,-0.28s-0.01,-0.19 -0.01,-0.28c0,-0.1 0.01,-0.19 0.01,-0.29s-0.01,-0.19 -0.01,-0.28c0,-0.09 0.01,-0.19 0.01,-0.28c0,-0.1 -0.01,-0.19 -0.01,-0.29c0,-0.09 0.01,-0.18 0.01,-0.28c0,-0.1 -0.01,-0.19 -0.01,-0.28c0,-0.1 0.01,-0.19 0.01,-0.29c0,-0.09 -0.01,-0.19 -0.01,-0.28c0,-0.09 0.01,-0.19 0.01,-0.28c0,-0.1 -0.01,-0.19 -0.01,-0.29c0,-0.09 0.01,-0.19 0.01,-0.28c0,-0.1 -0.01,-0.19 -0.01,-0.28c0,-0.1 0.01,-0.19 0.01,-0.29c0,-0.09 -0.01,-0.19 -0.01,-0.28c0,-0.09 0.01,-0.19 0.01,-0.28c0,-0.1 -0.01,-0.19 -0.01,-0.29c0,-0.09 0.01,-0.18 0.01,-0.28c0,-0.1 -0.01,-0.19 -0.01,-0.28c0,-0.1 0.01,-0.19 0.01,-0.29c0,-0.09 -0.01,-0.19 -0.01,-0.28c0,-0.09 0.01,-0.19 0.01,-0.28c0,-0.1 -0.01,-0.19 -0.01,-0.29c0,-0.09 0.01,-0.18 0.01,-0.28c0,-0.1 -0.01,-0.19 -0.01,-0.28c0,-0.1 0.01,-0.19 0.01,-0.29c0,-0.09 -0.01,-0.19 -0.01,-0.28c0,-0.1 0.01,-0.19 0.01,-0.28c0,-0.1 -0.01,-0.19 -0.01,-0.29c0,-0.09 0.01,-0.19 0.01,-0.28c0,-0.1 -0.01,-0.19 -0.01,-0.28c0,-0.1 0.01,-0.19 0.01,-0.29c0,-0.01 0,-0.03 0,-0.05z" id="svg_5"/>
     <path d="m72.87,36.72c-13.68,3.8 -27.99,3.22 -41.98,-0.3c-14.31,-3.21 -23.22,-3.8 -36.89,-0.29c0,4.39 -3.5,9.07 -5.41,13.76c13.68,-3.81 27.99,-3.22 41.98,0.29c14.31,3.22 34.35,2.05 48.02,-1.47c-2.23,-4.09 -5.72,-7.6 -5.72,-11.99z" id="svg_6"/>
    </g>
   </g>
   <g fill="#000" id="SvgjsG1510" transform="matrix(2.14975 0 0 2.14975 94.5824 17.6172)">
    <path d="m-1.54,15.54q-1.37,-0.77 -2.17,-2.09t-0.8,-2.88q0,-1.54 0.8,-2.86t2.17,-2.09t2.99,-0.77t3,0.77t2.19,2.09t0.81,2.86q0,1.56 -0.81,2.88t-2.19,2.09t-3,0.77t-2.99,-0.77zm1.47,-7.66q-0.7,0.41 -1.1,1.12t-0.4,1.57q0,0.9 0.39,1.61t1.08,1.12t1.55,0.41q0.84,0 1.53,-0.41t1.09,-1.13t0.4,-1.6q0,-0.86 -0.4,-1.57t-1.09,-1.12t-1.53,-0.41q-0.82,0 -1.52,0.41zm19.17,-1.81q1.03,1.22 1.03,3.48l0,6.5l-3.06,0l0,-6.5q0,-2.22 -2.12,-2.22q-0.82,0 -1.48,0.65t-0.62,2.25l0,5.82l-2.98,0l0,-11l2.98,0l0,0.98q0.54,-0.54 1.36,-0.86t1.58,-0.32q2.28,0 3.31,1.22zm11.57,14.1l1.9,-4.52l-4.72,-10.56l3.46,0l2.78,7l2.56,-7l3.46,0l-6.14,15.08l-3.3,0zm13.27,-4.63q-1.37,-0.77 -2.17,-2.09t-0.8,-2.88q0,-1.54 0.8,-2.86t2.17,-2.09t2.99,-0.77t3,0.77t2.19,2.09t0.81,2.86q0,1.56 -0.81,2.88t-2.19,2.09t-3,0.77t-2.99,-0.77zm1.47,-7.66q-0.7,0.41 -1.1,1.12t-0.4,1.57q0,0.9 0.39,1.61t1.08,1.12t1.55,0.41q0.84,0 1.53,-0.41t1.09,-1.13t0.4,-1.6q0,-0.86 -0.4,-1.57t-1.09,-1.12t-1.53,-0.41q-0.82,0 -1.52,0.41zm9.74,3.71l0,-6.5l3.02,0l0,6.5q0,1.18 0.59,1.69t1.55,0.51q0.84,0 1.5,-0.65t0.6,-2.23l0,-5.82l3,0l0,10.96l-3,0l0,-0.94q-0.54,0.56 -1.31,0.87t-1.63,0.31q-4.32,0 -4.32,-4.7zm18.42,-3.67q-0.86,0.21 -1.58,0.99t-0.72,2.28l0,4.86l-2.98,0l0,-11l2.98,0l0,1.46q0.74,-0.98 1.81,-1.33t1.95,-0.33l0,2.92q-0.6,-0.06 -1.46,0.15zm25.65,-1.83q1.13,1.24 1.13,3.46l0,6.5l-3.02,0l0,-6.5q0,-1.18 -0.59,-1.7t-1.55,-0.52q-0.8,0 -1.44,0.6t-0.66,2l0,6.12l-3.02,0l0,-6.5q0,-1.18 -0.59,-1.7t-1.53,-0.52q-0.86,0 -1.49,0.64t-0.63,2.26l-0.02,5.82l-2.98,0l0,-11l2.98,0l0,1q0.58,-0.52 1.4,-0.86t1.5,-0.34q2.32,0 3.54,1.5q0.62,-0.7 1.54,-1.1t2,-0.4q2.3,0 3.43,1.24zm12.57,8.86q-0.38,0.52 -1.31,0.93t-2.03,0.41q-1.7,0 -2.95,-0.76t-1.91,-2.07t-0.66,-2.91t0.66,-2.91t1.91,-2.07t2.95,-0.76q1.14,0 2.01,0.39t1.33,0.99l0,-1.14l2.96,0l0,11l-2.96,0l0,-1.1zm-0.7,-6.65q-0.82,-0.87 -2.2,-0.87q-1.4,0 -2.21,0.87t-0.81,2.25q0,1.34 0.83,2.22t2.19,0.88q1.4,0 2.21,-0.83t0.81,-2.27q0,-1.38 -0.82,-2.25zm11.86,-0.38q-0.86,0.21 -1.58,0.99t-0.72,2.28l0,4.86l-2.98,0l0,-11l2.98,0l0,1.46q0.74,-0.98 1.81,-1.33t1.95,-0.33l0,2.92q-0.6,-0.06 -1.46,0.15zm6.26,-6.99l0,8.8l3.74,-4.62l3.66,0l-4.42,5.12l4.6,5.82l-3.62,0l-2.88,-3.6l-1.08,1.24l0,2.36l-3,0l0,-15.12l3,0z" id="svg_7"/>
   </g>
  </g>
 </g>
</svg>